<svg xmlns="http://www.w3.org/2000/svg" viewBox="227 211.03 569 596.5"><path fill="white" fill-rule="evenodd" d="M506.5 215.864c-9.2 7.355-22.622 22.159-29.855 32.927-7.806 11.624-18.311 33.097-22.605 46.209-1.711 5.225-4.318 15.125-5.793 22-2.53 11.797-2.682 14.019-2.697 39.5-.014 24.385.205 28.017 2.261 37.5 8.586 39.613 25.334 74.2 49.589 102.416l5.086 5.916-5.993-.701c-47.649-5.576-103.313-34.76-135.339-70.958-14.426-16.304-26.458-37.157-33.086-57.345-4.2-12.788-7.06-26.786-7.065-34.578-.003-4.355.198-4.75 2.409-4.75 9.413 0 32.495 7.319 47.752 15.142 27.268 13.981 47.289 31.965 69.084 62.053 5.058 6.982 9.297 12.593 9.421 12.469s-.869-3.992-2.208-8.595c-1.338-4.603-3.365-12.914-4.505-18.469s-2.455-11.045-2.924-12.199c-1.521-3.748-15.29-18.445-24.525-26.177-23.72-19.862-51.458-34.07-77.507-39.701-4.125-.892-13.422-1.887-20.661-2.211l-13.161-.589-.73 5.85c-1.857 14.859 1.732 40.47 8.188 58.427 14.832 41.259 44.222 77.282 81.074 99.373 15.868 9.513 42.652 20.63 59.557 24.72 2.622.634 4.96 1.465 5.195 1.846.236.382-3.934 1.736-9.267 3.009-37.602 8.982-72.687 28.951-98.467 56.045-12.495 13.132-19.428 22-27.1 34.66-10.685 17.632-17.717 35.839-21.604 55.936-2.162 11.175-3.09 30.877-1.571 33.336.666 1.076 4.068 1.238 16.94.804 18.979-.639 32.578-3.639 50.032-11.036 25.206-10.684 52.659-30.096 68.068-48.134 4.314-5.049 4.842-6.3 7.492-17.746 1.567-6.772 4.187-16.065 5.82-20.651s2.642-7.96 2.242-7.5c-.401.461-3.242 4.228-6.313 8.371-22.987 31.008-49.094 53.428-77.967 66.954C350.69 667.049 332.834 672 322.435 672H317v-4.935c0-6.803 2.215-16.657 6.515-28.989 20.157-57.802 75.787-104.504 145.985-122.554 12.275-3.156 32.024-6.331 33.044-5.312.256.257-1.867 3.127-4.718 6.379-19.443 22.169-36.95 52.97-45.137 79.411-7.254 23.431-8.621 31.604-9.383 56.096-1.436 46.185 8.465 83.312 31.444 117.904 10.493 15.797 25.898 32.181 34.383 36.569 2.843 1.47 3.228 1.411 7.68-1.172 6.366-3.693 24.523-22.193 30.813-31.397 15.887-23.245 26.646-49.4 31.467-76.5 2.701-15.181 3.727-47.847 1.955-62.233-5.016-40.721-22.155-80.381-49.379-114.267-4.198-5.225-7.641-9.86-7.651-10.3-.056-2.452 26.428 2.81 44.982 8.938 33.103 10.932 63.887 29.97 86.5 53.494 23.237 24.174 35.868 46.192 43.592 75.991 2.435 9.394 4.031 23.919 2.782 25.309-1.175 1.307-13.664-.772-23.94-3.985-17.304-5.411-38.836-17.55-54.934-30.969-14.755-12.3-32.865-32.59-43.506-48.743-2.088-3.171-3.953-5.609-4.143-5.419-.191.191.712 3.46 2.005 7.265 1.91 5.616 5.567 19.979 8.142 31.971.719 3.346 13.717 17.536 24.739 27.007 21.256 18.266 44.917 31.096 70.263 38.1 6.706 1.852 12.545 2.632 22.907 3.059 12.724.524 14.021.417 15.25-1.264 2.118-2.896 1.769-25.186-.584-37.324-6.519-33.629-24.355-66.535-50.391-92.966-25.308-25.692-51.839-41.13-88.932-51.746-5.362-1.535-9.75-3.101-9.75-3.481s4.812-1.896 10.693-3.37c26.835-6.724 55.987-21.189 76.966-38.19 34.15-27.675 58.141-65.841 66.462-105.729 2.221-10.649 3.177-37.74 1.431-40.565-.679-1.098-3.611-1.247-14.948-.761-21.735.933-35.009 4.466-57.104 15.198-22.18 10.775-43.733 26.831-58.482 43.566l-7.568 8.587-1.77 9.235c-.974 5.08-3.254 14.398-5.067 20.706-1.814 6.309-3.002 11.114-2.64 10.678s4.334-5.975 8.826-12.31c20.331-28.672 43.959-49.574 71.701-63.43C674.624 340.999 694.295 335 705.217 335h3.041l-.701 8.036c-2.419 27.732-16.205 58.92-37.172 84.092-25.937 31.139-72.796 59.168-116.607 69.749-14.448 3.489-26.657 5.577-27.526 4.708-.34-.34.375-1.848 1.589-3.351 30.342-37.573 46.537-72.486 52.586-113.362 1.816-12.271 2.085-38.286.526-50.898-5.346-43.244-23.297-82.303-50.028-108.856-6.789-6.742-15.989-14.141-17.516-14.084-.5.018-3.609 2.192-6.909 4.83m-.618 26.865c-8.364 8.757-18.098 22.767-24.07 34.646-30.112 59.888-23.464 135.639 18.026 205.421 7.196 12.103 11.955 18.704 13.484 18.704 1.946 0 14.092-19.028 22.024-34.5 20.998-40.962 30.155-81.404 27.512-121.5-2.497-37.884-15.149-70.518-38.544-99.417-10.289-12.709-9.613-12.586-18.432-3.354m-104.39-2.312c-1.295 1.296-4.129 5.894-6.297 10.219-7.797 15.552-11.363 28.722-12.69 46.864-.733 10.024.868 30.039 2.567 32.087 1.724 2.077 16.946 10.728 17.646 10.028.345-.345-.196-5.687-1.203-11.871-3.469-21.311-1.81-44.223 4.403-60.804 3.614-9.645 3.675-9.678 11.147-5.915 9.441 4.755 14.419 8.425 24.197 17.844 4.82 4.642 8.943 8.258 9.163 8.035s1.813-3.96 3.538-8.305l3.136-7.901-3.299-3.478c-4.992-5.261-17.076-14.7-24.06-18.793-6.76-3.962-12.301-6.328-20.568-8.783-5.255-1.561-5.356-1.551-7.68.773M616 239.89c-13.145 4.261-28.224 13.498-39.342 24.099l-7.027 6.701 3.367 8.655c1.851 4.76 3.622 8.655 3.934 8.654s3.088-2.818 6.168-6.262 8.088-8.182 11.129-10.528c5.499-4.242 20.468-13.209 22.052-13.209 1.297 0 5.692 10.668 8.03 19.492 2.965 11.19 3.1 39.412.258 53.744-1.062 5.355-1.691 9.975-1.398 10.268s4.402-1.838 9.131-4.736c6.863-4.204 8.862-5.975 9.899-8.768.924-2.491 1.275-9.553 1.215-24.5-.078-19.414-.284-21.75-2.738-30.929-4.058-15.185-14.241-34.692-18.017-34.517-.639.029-3.636.856-6.661 1.836M284.64 384.599c-13.179 2.381-33.26 10.113-37.002 14.248-1.54 1.703-1.553 2.426-.16 9.049 3.54 16.826 15.944 39.482 27.956 51.059l3.585 3.456 8.49-2.944c4.67-1.618 8.489-3.173 8.487-3.455s-3.21-3.887-7.128-8.012c-10.295-10.839-18.193-23.166-22.3-34.806-1.697-4.811-1.519-5.025 6.727-8.064 7.604-2.802 21.191-5.126 30.086-5.145 3.915-.009 7.633-.346 8.26-.75.812-.523.379-2.615-1.5-7.246-1.452-3.581-3.005-7.069-3.45-7.75-1.076-1.648-11.914-1.471-22.051.36m440.226-.808c-2.225.27-3.101 1.434-5.655 7.512-1.662 3.956-2.856 7.463-2.652 7.792.204.33 4.774.901 10.156 1.268 17.451 1.193 37.285 6.798 37.285 10.538 0 2.799-6.486 15.203-12.058 23.061-2.91 4.103-9.089 11.133-13.73 15.62-4.642 4.488-8.025 8.416-7.517 8.729.507.314 4.576 1.904 9.042 3.534l8.12 2.963 6.405-6.654q12.71-13.204 19.846-27.38c4.968-9.867 8.892-21.547 8.892-26.467 0-3.571-.368-4.058-5.25-6.949-14.349-8.499-40.131-15.113-52.884-13.567m-404.059 72.774c-30.634 5.403-57.226 17.814-78.642 36.707C234.364 500.154 227 508.46 227 510.377c0 2.015 9.414 12.675 17.1 19.363 20.952 18.233 50.047 31.527 78.127 35.696 15.71 2.333 15.058 2.478 23.151-5.129 3.917-3.681 7.267-7.281 7.445-8 .231-.931-.977-1.307-4.198-1.307-13.566 0-37.927-4.972-52.959-10.809-15.59-6.054-37.686-20.197-42.821-27.409l-2.221-3.118 4.733-4.285c9.988-9.043 30.383-20.516 45.643-25.677 16.234-5.49 37.418-8.9 61.913-9.966l5.413-.236-8.697-7.75-8.697-7.75-8.216.075c-4.519.042-14.378 1.162-21.909 2.49m348.353 5.071c-5.037 4.234-8.915 7.943-8.617 8.241s6.485.846 13.75 1.218c35.977 1.844 69.961 14.747 92.079 34.962l5.733 5.24-3.303 3.483c-17.949 18.936-55.696 34.167-89.087 35.948-5.931.316-10.958.856-11.17 1.199s2.638 3.948 6.333 8.011l6.718 7.389 9.952-.656c23.98-1.581 51.808-11.431 74.047-26.212 8.885-5.905 25.889-21.483 28.657-26.254l1.752-3.02-3.891-4.843c-16.83-20.943-45.912-38.677-75.865-46.263-8.537-2.162-22.413-4.57-31.838-5.525l-6.09-.617zm-163.759 59.597c-18.016 27.378-33.098 62.106-38.829 89.41-8.058 38.39-6.267 78.021 4.991 110.415 7.227 20.798 21.548 44.761 34.794 58.221l5.857 5.951 6.388-6.331c21.508-21.317 37.686-55.749 42.943-91.399 2.104-14.265 2.389-41.416.583-55.5-2.586-20.157-7.894-40.598-15.582-60-8.312-20.978-29.68-59.029-33.557-59.756-.924-.173-3.803 3.237-7.588 8.989m-237.352 40.403c-14.102 15.43-25.847 38.384-24.864 48.593.293 3.044.975 3.603 9.815 8.05 5.225 2.629 13.088 5.916 17.473 7.304 8.362 2.649 26.959 5.233 29.803 4.141 1.612-.618 2.941-3.151 5.792-11.035 1.753-4.848.691-5.647-7.568-5.689-7.436-.039-22.524-3.156-30.219-6.243-6.56-2.631-6.634-2.938-2.767-11.498 3.565-7.892 9.219-15.947 16.822-23.964 3.76-3.964 6.566-7.645 6.236-8.179-.33-.533-2.281-1.514-4.336-2.178-2.055-.665-5.387-2.038-7.405-3.052l-3.669-1.844zm473.574-1.649c-3.782 1.614-7.1 3.157-7.373 3.43s2.095 3.328 5.262 6.79C749.199 580.793 760 598.853 760 604.465c0 3.535-22.508 8.808-37.75 8.844-7.202.017-10.25.376-10.25 1.206 0 .649 1.262 4.261 2.805 8.026 2.265 5.526 3.331 6.985 5.531 7.573 3.144.841 19.814-.528 27.164-2.232 7.135-1.653 24.72-8.551 28.661-11.241 2.995-2.045 3.324-2.736 3.191-6.71-.306-9.161-8.815-28.187-17.87-39.955-5.601-7.278-10.933-12.985-12.1-12.949-.485.015-3.977 1.347-7.759 2.96M392.608 672.009c-4.341 2.666-8.53 5.484-9.31 6.264-4.84 4.84-5.684 44.919-1.3 61.727 2.755 10.563 9.271 26.551 12.438 30.518l2.38 2.982 6.785-1.773c13.364-3.492 33.94-15.501 43.74-25.527l4.841-4.953-2.62-7.374c-1.441-4.055-2.839-7.989-3.105-8.742-.322-.906-3.211 1.235-8.547 6.333-11.836 11.308-29.123 21.82-33.267 20.229-.788-.302-2.381-3.401-3.541-6.885-6.648-19.978-6.901-45.499-.69-69.47 1.776-6.851 1.93-8.375.838-8.257-.413.045-4.301 2.263-8.642 4.928m233.225 9.241c3.463 16.105 3.662 42.208.42 55.006-1.22 4.815-3.136 10.555-4.258 12.754l-2.04 3.998-3.727-1.546c-9.117-3.783-19.124-10.54-27.906-18.843-5.166-4.885-9.531-8.71-9.7-8.5-.17.209-1.616 4.132-3.215 8.716l-2.907 8.334 7 6.678c11.714 11.175 27.186 20.213 40.704 23.778 6.419 1.694 6.787 1.693 8.669-.01 2.611-2.363 8.31-13.425 11.393-22.115 4.552-12.829 6.057-24.712 5.424-42.807-.312-8.906-1.066-18.26-1.676-20.787-1.065-4.41-1.49-4.823-10.556-10.25-5.195-3.111-9.58-5.656-9.744-5.656-.165 0 .789 5.063 2.119 11.25"/></svg>